# xmcd
#
# Track frame offsets:
#	150
#	10811
#	22341
#	35382
#	49873
#	65896
#	77501
#	92317
#	108218
#	123128
#	135411
#	148519
#	158151
#	166984
#	177754
#	189951
#	204124
#	215701
#	225885
#
# Disc length: 3170 seconds
#
# Revision: 0
# Processed by: cddbd v1.5.2PL0 Copyright (c) Steve Scherf et al.
# Submitted via: audiograbber 1.83.01
#
DISCID=eb0c6013
DTITLE=Various Artist - Country Girls
DYEAR=1993
DGENRE=Country
TTITLE0=Patsy Cline - Honky Tonk Merry Go-Round
TTITLE1=Patsy Cline - I've Loved And Lost Again
TTITLE2=Loretta Lynn - Let Your Love Flow (Live)
TTITLE3=Loretta Lynn - Coal Miner's Daughter (Live)
TTITLE4=Brenda Lee - Comin' On Strong (Live)
TTITLE5=Dolly Parton - Letter To Heaven
TTITLE6=Billie Joe Spears - Crystal Chandeliers
TTITLE7=Billie Joe Spears - Queen Of The Silver Dollar
TTITLE8=Jeannie C Riley - Harper Vally PTA
TTITLE9=Sandy Posey - Single Girl
TTITLE10=Lynn Anderson - Rose Garden
TTITLE11=Donna Fargo - Sticks and Stones
TTITLE12=Sandy Posey - Born A Woman
TTITLE13=Donna Fargo - All That's Keeping Me Alive
TTITLE14=Lynn Anderson - Stand By Your Man
TTITLE15=Margi Smith - It Only Hurts For A Little While
TTITLE16=Brenda Lee - Silver Threads and Golden Needles (Live)
TTITLE17=Billie Joe Spears - I'm Gonna Be A Country Girl Again
TTITLE18=Loretta Lynn - Me and Bobby McGee (Live)
EXTD=
EXTT0=
EXTT1=
EXTT2=
EXTT3=
EXTT4=
EXTT5=
EXTT6=
EXTT7=
EXTT8=
EXTT9=
EXTT10=
EXTT11=
EXTT12=
EXTT13=
EXTT14=
EXTT15=
EXTT16=
EXTT17=
EXTT18=
PLAYORDER=
